<svg xmlns="http://www.w3.org/2000/svg" xmlns:xlink="http://www.w3.org/1999/xlink" width="192" height="70" viewBox="0 0 192 70">
  <defs>
    <linearGradient id="linear-gradient" x1="0.5" y1="1" x2="0.5" gradientUnits="objectBoundingBox">
      <stop offset="0" stop-color="#e13f8c"/>
      <stop offset="0.503" stop-color="#9d2ad5"/>
      <stop offset="1" stop-color="#27aae1"/>
    </linearGradient>
    <linearGradient id="linear-gradient-2" x1="0.5" y1="5.591" x2="0.5" y2="-4.593" xlink:href="#linear-gradient"/>
    <linearGradient id="linear-gradient-3" x1="0.5" y1="2.146" x2="0.5" y2="-1.147" xlink:href="#linear-gradient"/>
    <linearGradient id="linear-gradient-4" x1="0.501" y1="1.493" x2="0.501" y2="-0.494" xlink:href="#linear-gradient"/>
    <linearGradient id="linear-gradient-5" x1="0.5" y1="1.453" x2="0.5" y2="-0.454" xlink:href="#linear-gradient"/>
    <clipPath id="clip-logo-anghami">
      <rect width="143" height="70"/>
    </clipPath>
  </defs>
  <g id="logo-anghami" clip-path="url(#clip-logo-anghami)">
    <g id="Anghami-colored-logo" transform="translate(2 20.641)">
      <g id="Group_2512" data-name="Group 2512" transform="translate(36.657 2.668)">
        <path id="Path_4438" data-name="Path 4438" d="M194.917,43.12a.06.06,0,0,0-.06.06v1.1l-.312-.2a6.111,6.111,0,0,0-3.291-.964H190.5a6.155,6.155,0,0,0-6.148,6.148v1a6.155,6.155,0,0,0,6.148,6.148h.756a6.1,6.1,0,0,0,3.561-1.145l.185-.133.109.2a2.072,2.072,0,0,0,1.819,1.078h1.042V43.18a.06.06,0,0,0-.06-.06Zm-.626,6.888a3.237,3.237,0,0,1-3.233,3.233h-.36a3.237,3.237,0,0,1-3.233-3.233v-.477A3.237,3.237,0,0,1,190.7,46.3h.36a3.237,3.237,0,0,1,3.233,3.233Z" transform="translate(-184.35 -37.886)" fill="#323232"/>
        <path id="Path_4439" data-name="Path 4439" d="M489.774,43.12h-.756a6.155,6.155,0,0,0-6.148,6.148v1a6.155,6.155,0,0,0,6.148,6.148h.756a6.1,6.1,0,0,0,3.561-1.145l.185-.133.109.2a2.071,2.071,0,0,0,1.819,1.078h1.042V43.253a.131.131,0,0,0-.131-.131h-2.85a.131.131,0,0,0-.131.131v1.03l-.312-.2A6.122,6.122,0,0,0,489.774,43.12Zm3.034,6.888a3.237,3.237,0,0,1-3.233,3.233h-.36a3.237,3.237,0,0,1-3.233-3.233v-.477a3.237,3.237,0,0,1,3.233-3.233h.36a3.237,3.237,0,0,1,3.233,3.233Z" transform="translate(-423.511 -37.886)" fill="#323232"/>
        <path id="Path_4440" data-name="Path 4440" d="M682.827,56.419h2.782a.165.165,0,0,0,.165-.165V45.162a2.045,2.045,0,0,0-2.042-2.042H682.66V56.252A.169.169,0,0,0,682.827,56.419Z" transform="translate(-583.573 -37.886)" fill="#323232"/>
        <path id="Path_4441" data-name="Path 4441" d="M684.772,16.8H683.7a1.021,1.021,0,0,0-1.02,1.02v1.072a1.021,1.021,0,0,0,1.02,1.02h1.072a1.021,1.021,0,0,0,1.02-1.02V17.82A1.021,1.021,0,0,0,684.772,16.8Z" transform="translate(-583.589 -16.8)" fill="#323232"/>
        <path id="Path_4442" data-name="Path 4442" d="M270.72,56.419h2.933a.091.091,0,0,0,.091-.091V49.268A6.155,6.155,0,0,0,267.6,43.12h-.756a6.121,6.121,0,0,0-3.168.885l-.159.1-.109-.149a2.021,2.021,0,0,0-1.642-.831H260.69V56.377a.042.042,0,0,0,.04.042h3.032a.042.042,0,0,0,.042-.042V49.531a3.237,3.237,0,0,1,3.233-3.233h.36a3.237,3.237,0,0,1,3.233,3.233v6.8A.09.09,0,0,0,270.72,56.419Z" transform="translate(-245.51 -37.886)" fill="#323232"/>
        <path id="Path_4443" data-name="Path 4443" d="M579.234,56.427h2.8a.155.155,0,0,0,.155-.155V49.278a6.155,6.155,0,0,0-6.148-6.148h-.756a6.085,6.085,0,0,0-4.444,1.915l-.147.153-.147-.153a6.092,6.092,0,0,0-4.444-1.915h-.756a6.121,6.121,0,0,0-3.168.885l-.159.1-.109-.149a2.021,2.021,0,0,0-1.643-.831H559.2V56.262a.167.167,0,0,0,.167.167h2.782a.165.165,0,0,0,.165-.167V49.541a3.237,3.237,0,0,1,3.233-3.233h.36a3.237,3.237,0,0,1,3.233,3.233V56.29a.137.137,0,0,0,.137.137h2.838a.137.137,0,0,0,.137-.137V49.539a3.237,3.237,0,0,1,3.233-3.233h.36a3.237,3.237,0,0,1,3.233,3.233v6.733A.155.155,0,0,0,579.234,56.427Z" transform="translate(-484.663 -37.894)" fill="#323232"/>
        <path id="Path_4444" data-name="Path 4444" d="M422.325,35.773a.118.118,0,0,0,.117-.117V28.625a6.155,6.155,0,0,0-6.148-6.148h-.756a6.053,6.053,0,0,0-2.74.65l-.294.147V19.225a1.877,1.877,0,0,0-1.875-1.875H409.39V35.705a.066.066,0,0,0,.066.066h2.981a.066.066,0,0,0,.066-.066v-6.82a3.237,3.237,0,0,1,3.233-3.233h.36a3.237,3.237,0,0,1,3.233,3.233v6.771a.118.118,0,0,0,.117.117Z" transform="translate(-364.642 -17.241)" fill="#323232"/>
        <path id="Path_4445" data-name="Path 4445" d="M340.279,62.258c3.965,0,6.628-2.595,6.628-6.457a5.062,5.062,0,0,0-1.479-3.874l-.133-.127.113-.145a6.071,6.071,0,0,0,1.308-3.778v-1a6.092,6.092,0,0,0-1.048-3.42l-.093-.139,1.479-1.479a.106.106,0,0,0,0-.147L345.9,40.534a1.377,1.377,0,0,0-1.943,0l-.779.779-.127-.056a6.075,6.075,0,0,0-2.482-.529h-.756a6.155,6.155,0,0,0-6.148,6.148v1a6.155,6.155,0,0,0,6.148,6.148h.756a6.109,6.109,0,0,0,2.142-.388l.117-.044.091.087a2.831,2.831,0,0,1,.877,2.122,3.186,3.186,0,0,1-3.518,3.271,3.414,3.414,0,0,1-3.611-3l-.008-.137c0-.014-.01-.024-.054-.026h-3c-.03,0-.034.012-.036.03C333.64,59.659,336.4,62.258,340.279,62.258ZM343.6,47.615a3.237,3.237,0,0,1-3.233,3.233h-.36a3.237,3.237,0,0,1-3.233-3.233v-.477a3.237,3.237,0,0,1,3.233-3.233h.36a3.237,3.237,0,0,1,3.233,3.233Z" transform="translate(-303.898 -35.493)" fill="#323232"/>
      </g>
      <g id="Group_2514" data-name="Group 2514" transform="translate(0 -0.84)">
        <path id="Path_4446" data-name="Path 4446" d="M15.24-.84A15.24,15.24,0,1,0,30.479,14.4,15.257,15.257,0,0,0,15.24-.84Zm12.9,15.24a12.9,12.9,0,1,1-12.9-12.9A12.913,12.913,0,0,1,28.139,14.4Z" transform="translate(0 0.84)" fill="url(#linear-gradient)"/>
        <g id="Group_2513" data-name="Group 2513" transform="translate(8.033 7.249)">
          <path id="Path_4447" data-name="Path 4447" d="M104.477,68.27h0a.928.928,0,0,0-.652.268.91.91,0,0,0-.274.652l-.006,1.141a.928.928,0,0,0,.923.931h0a.928.928,0,0,0,.927-.923L105.4,69.2A.93.93,0,0,0,104.477,68.27Z" transform="translate(-90.985 -61.777)" fill="url(#linear-gradient-2)"/>
          <path id="Path_4448" data-name="Path 4448" d="M87.6,52.53h0a.928.928,0,0,0-.927.923l-.034,7.4a.928.928,0,0,0,.923.931h0a.928.928,0,0,0,.652-.268.91.91,0,0,0,.274-.652l.034-7.4a.93.93,0,0,0-.923-.933Z" transform="translate(-77.445 -49.167)" fill="url(#linear-gradient-3)"/>
          <path id="Path_4449" data-name="Path 4449" d="M70.724,37.23h0a.928.928,0,0,0-.927.923L69.73,51.638a.927.927,0,0,0,.921.931h0a.927.927,0,0,0,.927-.923l.064-13.486A.927.927,0,0,0,70.724,37.23Z" transform="translate(-63.898 -36.909)" fill="url(#linear-gradient-4)"/>
          <path id="Path_4450" data-name="Path 4450" d="M44.289,35.839a1.227,1.227,0,0,0-1.129-.145,4.291,4.291,0,0,0-1.481.921,4.141,4.141,0,0,0,.032,5.924l.982.952a.144.144,0,0,1,0,.207l-.968.921A4.279,4.279,0,0,0,40.4,47.7a3.961,3.961,0,0,0,1.219,2.9,4.286,4.286,0,0,0,1.479.925,1.219,1.219,0,0,0,1.121-.139,1.191,1.191,0,0,0,.519-.986L44.8,36.831A1.186,1.186,0,0,0,44.289,35.839Z" transform="translate(-40.4 -35.617)" fill="url(#linear-gradient-5)"/>
        </g>
      </g>
    </g>
  </g>
</svg>
