<svg xmlns="http://www.w3.org/2000/svg" xmlns:xlink="http://www.w3.org/1999/xlink" width="143" height="55" viewBox="0 0 143 55">
  <defs>
    <clipPath id="clip-logo-amazonmusic">
      <rect width="143" height="55"/>
    </clipPath>
  </defs>
  <g id="logo-amazonmusic" clip-path="url(#clip-logo-amazonmusic)">
    <g id="Page-1" transform="translate(2.401 22)">
      <g id="Browse_Loading_Screen">
        <path id="Combined-Shape" d="M602.415,383.145v-1.656a.41.41,0,0,1,.422-.419H610.3a.415.415,0,0,1,.43.418v1.421a2.326,2.326,0,0,1-.562,1.043l-3.867,5.49a8.319,8.319,0,0,1,4.258.91.756.756,0,0,1,.4.646v1.767a.4.4,0,0,1-.55.379,8.641,8.641,0,0,0-7.888.015c-.259.138-.531-.14-.531-.384v-1.68a1.99,1.99,0,0,1,.278-1.138l4.48-6.391h-3.9A.414.414,0,0,1,602.415,383.145ZM575.185,393.49h-2.271a.427.427,0,0,1-.406-.382l0-11.591a.427.427,0,0,1,.438-.417h2.115a.427.427,0,0,1,.413.389V383h.043a3.125,3.125,0,0,1,5.936,0,3.363,3.363,0,0,1,5.766-.878c.721.975.573,2.39.573,3.634l0,7.315a.427.427,0,0,1-.438.417h-2.268a.424.424,0,0,1-.407-.416v-6.145a14.693,14.693,0,0,0-.064-2.17,1.183,1.183,0,0,0-1.335-1,1.506,1.506,0,0,0-1.357.951,6.978,6.978,0,0,0-.212,2.22v6.144a.427.427,0,0,1-.438.417H579a.424.424,0,0,1-.407-.416l0-6.145c0-1.293.212-3.194-1.4-3.194-1.633,0-1.569,1.853-1.569,3.194v6.144A.427.427,0,0,1,575.185,393.49Zm41.975-12.634c3.37,0,5.193,2.878,5.193,6.537,0,3.536-2.013,6.341-5.193,6.341-3.307,0-5.11-2.879-5.11-6.464C612.05,383.661,613.873,380.856,617.16,380.856Zm.02,2.366c-1.675,0-1.78,2.268-1.78,3.683s-.021,4.439,1.76,4.439c1.76,0,1.844-2.439,1.844-3.926a10.669,10.669,0,0,0-.339-3.073A1.421,1.421,0,0,0,617.18,383.222Zm9.545,10.268h-2.263a.425.425,0,0,1-.408-.416l0-11.595a.43.43,0,0,1,.437-.379h2.106a.431.431,0,0,1,.4.325V383.2h.043c.636-1.586,1.526-2.342,3.1-2.342a2.981,2.981,0,0,1,2.65,1.366,7.338,7.338,0,0,1,.594,3.61v7.293a.43.43,0,0,1-.435.365h-2.276a.427.427,0,0,1-.4-.365v-6.293c0-1.269.149-3.123-1.42-3.123a1.486,1.486,0,0,0-1.315.927,5.128,5.128,0,0,0-.361,2.2v6.241A.433.433,0,0,1,626.725,393.49Zm-27.971-.029a.471.471,0,0,1-.536.052,5.521,5.521,0,0,1-1.3-1.5,4.513,4.513,0,0,1-3.745,1.642,3.214,3.214,0,0,1-3.4-3.52,3.836,3.836,0,0,1,2.422-3.691,15.8,15.8,0,0,1,4.271-.783v-.293a2.876,2.876,0,0,0-.276-1.637,1.521,1.521,0,0,0-1.274-.587,1.728,1.728,0,0,0-1.826,1.356.478.478,0,0,1-.395.416l-2.2-.237a.4.4,0,0,1-.339-.472c.506-2.655,2.918-3.458,5.079-3.458a5.169,5.169,0,0,1,3.42,1.124c1.105,1.026,1,2.4,1,3.887v3.518a3.074,3.074,0,0,0,.857,2.093.424.424,0,0,1-.007.6c-.464.387-1.288,1.1-1.742,1.5Zm-2.289-5.506v-.489c-1.643,0-3.378.349-3.378,2.273,0,.978.51,1.638,1.38,1.638a1.847,1.847,0,0,0,1.572-1.026A4.41,4.41,0,0,0,596.465,387.955Zm-27.483,5.506a.471.471,0,0,1-.536.052,5.5,5.5,0,0,1-1.3-1.5,4.513,4.513,0,0,1-3.744,1.642,3.214,3.214,0,0,1-3.4-3.52,3.835,3.835,0,0,1,2.422-3.691,15.805,15.805,0,0,1,4.27-.783v-.293a2.879,2.879,0,0,0-.275-1.637,1.522,1.522,0,0,0-1.275-.587,1.727,1.727,0,0,0-1.825,1.356.478.478,0,0,1-.395.416l-2.2-.237a.4.4,0,0,1-.339-.472c.506-2.655,2.917-3.458,5.079-3.458a5.171,5.171,0,0,1,3.421,1.124c1.1,1.026,1,2.4,1,3.887v3.518a3.075,3.075,0,0,0,.857,2.093.425.425,0,0,1-.007.6c-.464.387-1.289,1.1-1.742,1.5Zm-2.29-5.506v-.489c-1.642,0-3.378.349-3.378,2.273,0,.978.511,1.638,1.381,1.638a1.847,1.847,0,0,0,1.573-1.026A4.411,4.411,0,0,0,566.692,387.955ZM605.5,397.94c-4.264,3.129-10.444,4.792-15.767,4.792a28.626,28.626,0,0,1-19.26-7.306c-.4-.358-.043-.848.437-.57a38.935,38.935,0,0,0,19.271,5.084,38.52,38.52,0,0,0,14.7-2.991C605.6,396.646,606.206,397.422,605.5,397.94Zm1.774-2.014c-.546-.694-3.6-.329-4.979-.165-.416.05-.481-.312-.106-.574,2.441-1.7,6.44-1.212,6.9-.642s-.123,4.562-2.41,6.465c-.352.293-.686.137-.53-.25C606.669,399.482,607.82,396.621,607.274,395.926Zm72.328-4.419a1.562,1.562,0,0,0,.626-1.341,1.265,1.265,0,0,0-.381-.951,4.1,4.1,0,0,0-1.386-.731l-2.082-.78q-2.721-1-2.723-3.414a3.1,3.1,0,0,1,1.238-2.561,5.108,5.108,0,0,1,3.25-.975,8.941,8.941,0,0,1,3.114.561.851.851,0,0,1,.416.256.772.772,0,0,1,.124.475v.659q0,.438-.319.439a2.195,2.195,0,0,1-.564-.122,9.156,9.156,0,0,0-2.648-.39q-2.354,0-2.354,1.584a1.3,1.3,0,0,0,.394,1,5.067,5.067,0,0,0,1.544.8l1.913.732a5.03,5.03,0,0,1,2.084,1.329,3.015,3.015,0,0,1,.636,1.986,3.325,3.325,0,0,1-1.3,2.755,5.432,5.432,0,0,1-3.458,1.024,9.564,9.564,0,0,1-3.7-.683.964.964,0,0,1-.406-.268.769.769,0,0,1-.111-.464v-.683c0-.293.1-.439.294-.439a2.388,2.388,0,0,1,.614.146,11.059,11.059,0,0,0,3.359.512A3.034,3.034,0,0,0,679.6,391.507Zm-10.855-9.9a.433.433,0,0,1,.491-.487h1.446a.434.434,0,0,1,.493.487v11.386a.434.434,0,0,1-.493.489h-1.052a.642.642,0,0,1-.381-.1.558.558,0,0,1-.183-.366l-.173-.854a7.806,7.806,0,0,1-4.683,1.683,3.526,3.526,0,0,1-2.673-.975,3.829,3.829,0,0,1-.932-2.755v-8.509a.432.432,0,0,1,.49-.487h1.447a.432.432,0,0,1,.491.487v7.73a3.009,3.009,0,0,0,.515,1.938,2.013,2.013,0,0,0,1.643.622,6.467,6.467,0,0,0,3.555-1.171ZM655.6,393.482a.433.433,0,0,1-.491-.489v-7.9a2.878,2.878,0,0,0-.466-1.8,1.767,1.767,0,0,0-1.471-.585,6.927,6.927,0,0,0-3.6,1.1,2.577,2.577,0,0,1,.025.366v8.825a.433.433,0,0,1-.491.489h-1.447a.432.432,0,0,1-.49-.489v-7.9a2.878,2.878,0,0,0-.466-1.8,1.768,1.768,0,0,0-1.471-.585,6.656,6.656,0,0,0-3.58,1.073v9.216a.432.432,0,0,1-.49.489h-1.447a.433.433,0,0,1-.491-.489V381.608a.432.432,0,0,1,.491-.487h1.079a.641.641,0,0,1,.38.1.557.557,0,0,1,.184.366l.147.78a8.136,8.136,0,0,1,4.585-1.609,3.083,3.083,0,0,1,3.09,1.731,8.33,8.33,0,0,1,4.855-1.731,3.425,3.425,0,0,1,2.6.951,3.77,3.77,0,0,1,.907,2.707v8.582a.433.433,0,0,1-.49.489Zm37.45-9.619a4.941,4.941,0,0,0-.908,3.3v.317a4.822,4.822,0,0,0,.918,3.255,3.7,3.7,0,0,0,2.906,1.037,7.928,7.928,0,0,0,2.208-.342,1.751,1.751,0,0,1,.366-.073q.319,0,.319.488v.658a.836.836,0,0,1-.1.463.853.853,0,0,1-.391.269,7.1,7.1,0,0,1-2.794.511,5.746,5.746,0,0,1-4.426-1.646,8.109,8.109,0,0,1,.047-9.558,5.826,5.826,0,0,1,4.475-1.694,7.558,7.558,0,0,1,2.6.463.809.809,0,0,1,.381.244.822.822,0,0,1,.109.487v.659c0,.325-.106.487-.317.487a1.713,1.713,0,0,1-.394-.073,7.262,7.262,0,0,0-2.035-.293A3.753,3.753,0,0,0,693.051,383.863Zm-6.49-2.743a.432.432,0,0,1,.49.487v11.386a.432.432,0,0,1-.49.489h-1.446a.432.432,0,0,1-.49-.489V381.608a.432.432,0,0,1,.49-.487Zm.406-4.718a1.6,1.6,0,0,1,0,2.121,1.75,1.75,0,0,1-2.233,0,1.6,1.6,0,0,1,0-2.121,1.75,1.75,0,0,1,2.233,0Z" transform="translate(-560 -380)" fill="#40f" fill-rule="evenodd"/>
      </g>
    </g>
  </g>
</svg>
