<svg xmlns="http://www.w3.org/2000/svg" xmlns:xlink="http://www.w3.org/1999/xlink" width="192" height="70" viewBox="0 0 192 70">
  <defs>
    <clipPath id="clip-logo-amazon">
      <rect width="143" height="70"/>
    </clipPath>
  </defs>
  <g id="logo-amazon" clip-path="url(#clip-logo-amazon)">
    <g id="Group_2511" data-name="Group 2511">
      <path id="Combined-Shape" d="M640.266,389.2v-3.061a.768.768,0,0,1,.8-.774h14.127a.776.776,0,0,1,.814.772v2.625c0,.44-.386,1.014-1.063,1.926l-7.318,10.144a16.062,16.062,0,0,1,8.057,1.681,1.392,1.392,0,0,1,.75,1.194v3.265a.753.753,0,0,1-1.041.7,16.7,16.7,0,0,0-14.926.027c-.49.254-1-.259-1-.71v-3.1a3.608,3.608,0,0,1,.526-2.1l8.479-11.809h-7.383A.775.775,0,0,1,640.266,389.2Zm-51.531,19.114h-4.3a.8.8,0,0,1-.769-.705l0-21.417a.8.8,0,0,1,.83-.771h4a.8.8,0,0,1,.781.719v2.8h.081a5.659,5.659,0,0,1,5.656-3.966c2.687,0,4.373,1.262,5.576,3.966a6.437,6.437,0,0,1,10.912-1.622c1.364,1.8,1.084,4.416,1.084,6.715l0,13.516a.8.8,0,0,1-.83.77h-4.292a.792.792,0,0,1-.77-.769l0-11.355a26.516,26.516,0,0,0-.121-4.01,2.232,2.232,0,0,0-2.527-1.849,2.849,2.849,0,0,0-2.568,1.757,12.6,12.6,0,0,0-.4,4.1v11.353a.8.8,0,0,1-.828.77h-4.293a.793.793,0,0,1-.771-.769l-.005-11.355c0-2.388.4-5.9-2.647-5.9-3.09,0-2.969,3.424-2.969,5.9v11.353A.8.8,0,0,1,588.735,408.317Zm79.433-23.345c6.378,0,9.828,5.319,9.828,12.079,0,6.534-3.81,11.718-9.828,11.718-6.259,0-9.669-5.32-9.669-11.944C658.5,390.155,661.949,384.972,668.168,384.972Zm.038,4.372c-3.169,0-3.369,4.19-3.369,6.805s-.04,8.2,3.33,8.2c3.33,0,3.489-4.507,3.489-7.255a19.269,19.269,0,0,0-.642-5.679A2.68,2.68,0,0,0,668.207,389.344Zm18.062,18.973h-4.282a.794.794,0,0,1-.771-.769l-.007-21.425a.807.807,0,0,1,.826-.7h3.986a.812.812,0,0,1,.764.6V389.3h.081c1.2-2.931,2.887-4.327,5.857-4.327a5.684,5.684,0,0,1,5.014,2.524c1.123,1.712,1.123,4.6,1.123,6.67v13.477a.808.808,0,0,1-.823.674h-4.308a.8.8,0,0,1-.765-.674V396.015c0-2.344.281-5.77-2.687-5.77a2.811,2.811,0,0,0-2.488,1.712,9.276,9.276,0,0,0-.683,4.058v11.532A.812.812,0,0,1,686.269,408.317Zm-52.932-.054a.908.908,0,0,1-1.015.1,10.271,10.271,0,0,1-2.464-2.78c-2.359,2.333-4.03,3.033-7.086,3.033-3.617,0-6.432-2.168-6.432-6.5a7.09,7.09,0,0,1,4.584-6.82c2.331-.994,5.588-1.174,8.081-1.446V393.3a5.2,5.2,0,0,0-.523-3.025,2.907,2.907,0,0,0-2.412-1.084,3.26,3.26,0,0,0-3.455,2.505.893.893,0,0,1-.747.768l-4.165-.439a.738.738,0,0,1-.642-.873c.958-4.906,5.522-6.389,9.611-6.389,2.091,0,4.825.542,6.472,2.078,2.092,1.9,1.891,4.427,1.891,7.183v6.5a5.616,5.616,0,0,0,1.622,3.867c.275.381.335.832-.014,1.109-.878.714-2.437,2.03-3.3,2.772ZM629,398.09v-.9c-3.11,0-6.392.645-6.392,4.2,0,1.807.964,3.027,2.612,3.027a3.5,3.5,0,0,0,2.975-1.9A7.981,7.981,0,0,0,629,398.09ZM577,408.264a.908.908,0,0,1-1.015.1,10.242,10.242,0,0,1-2.463-2.78c-2.359,2.333-4.031,3.033-7.086,3.033-3.618,0-6.433-2.168-6.433-6.5a7.088,7.088,0,0,1,4.583-6.82c2.332-.994,5.589-1.174,8.08-1.446V393.3a5.21,5.21,0,0,0-.521-3.025,2.908,2.908,0,0,0-2.413-1.084,3.259,3.259,0,0,0-3.454,2.505.893.893,0,0,1-.747.768l-4.166-.439a.738.738,0,0,1-.642-.873c.957-4.906,5.52-6.389,9.611-6.389,2.09,0,4.825.542,6.473,2.078,2.09,1.9,1.89,4.427,1.89,7.183v6.5a5.617,5.617,0,0,0,1.621,3.867c.274.381.336.832-.013,1.109-.878.714-2.439,2.03-3.3,2.772Zm-4.333-10.174v-.9c-3.107,0-6.392.645-6.392,4.2,0,1.807.966,3.027,2.613,3.027a3.5,3.5,0,0,0,2.976-1.9A7.984,7.984,0,0,0,572.663,398.09ZM646.1,416.541c-8.068,5.781-19.765,8.855-29.837,8.855a54.92,54.92,0,0,1-36.448-13.5c-.755-.662-.081-1.566.827-1.054a74.3,74.3,0,0,0,64.286,3.868C646.3,414.149,647.439,415.583,646.1,416.541Zm3.357-3.722c-1.032-1.283-6.82-.608-9.422-.305-.788.091-.91-.577-.2-1.061,4.619-3.149,12.186-2.24,13.066-1.185s-.233,8.43-4.561,11.945c-.666.541-1.3.253-1-.461C648.314,419.39,650.494,414.1,649.461,412.819Z" transform="translate(-558 -361.396)" fill="#f90" fill-rule="evenodd"/>
      <path id="Combined-Shape-2" data-name="Combined-Shape" d="M640.266,389.2v-3.061a.768.768,0,0,1,.8-.774h14.127a.776.776,0,0,1,.814.772v2.625c0,.44-.386,1.014-1.063,1.926l-7.318,10.144a16.062,16.062,0,0,1,8.057,1.681,1.392,1.392,0,0,1,.75,1.194v3.265a.753.753,0,0,1-1.041.7,16.7,16.7,0,0,0-14.926.027c-.49.254-1-.259-1-.71v-3.1a3.608,3.608,0,0,1,.526-2.1l8.479-11.809h-7.383A.775.775,0,0,1,640.266,389.2Zm-51.531,19.114h-4.3a.8.8,0,0,1-.769-.705l0-21.417a.8.8,0,0,1,.83-.771h4a.8.8,0,0,1,.781.719v2.8h.081a5.659,5.659,0,0,1,5.656-3.966c2.687,0,4.373,1.262,5.576,3.966a6.437,6.437,0,0,1,10.912-1.622c1.364,1.8,1.084,4.416,1.084,6.715l0,13.516a.8.8,0,0,1-.83.77h-4.292a.792.792,0,0,1-.77-.769l0-11.355a26.516,26.516,0,0,0-.121-4.01,2.232,2.232,0,0,0-2.527-1.849,2.849,2.849,0,0,0-2.568,1.757,12.6,12.6,0,0,0-.4,4.1v11.353a.8.8,0,0,1-.828.77h-4.293a.793.793,0,0,1-.771-.769l-.005-11.355c0-2.388.4-5.9-2.647-5.9-3.09,0-2.969,3.424-2.969,5.9v11.353A.8.8,0,0,1,588.735,408.317Zm79.433-23.345c6.378,0,9.828,5.319,9.828,12.079,0,6.534-3.81,11.718-9.828,11.718-6.259,0-9.669-5.32-9.669-11.944C658.5,390.155,661.949,384.972,668.168,384.972Zm.038,4.372c-3.169,0-3.369,4.19-3.369,6.805s-.04,8.2,3.33,8.2c3.33,0,3.489-4.507,3.489-7.255a19.269,19.269,0,0,0-.642-5.679A2.68,2.68,0,0,0,668.207,389.344Zm18.062,18.973h-4.282a.794.794,0,0,1-.771-.769l-.007-21.425a.807.807,0,0,1,.826-.7h3.986a.812.812,0,0,1,.764.6V389.3h.081c1.2-2.931,2.887-4.327,5.857-4.327a5.684,5.684,0,0,1,5.014,2.524c1.123,1.712,1.123,4.6,1.123,6.67v13.477a.808.808,0,0,1-.823.674h-4.308a.8.8,0,0,1-.765-.674V396.015c0-2.344.281-5.77-2.687-5.77a2.811,2.811,0,0,0-2.488,1.712,9.276,9.276,0,0,0-.683,4.058v11.532A.812.812,0,0,1,686.269,408.317Zm-52.932-.054a.908.908,0,0,1-1.015.1,10.271,10.271,0,0,1-2.464-2.78c-2.359,2.333-4.03,3.033-7.086,3.033-3.617,0-6.432-2.168-6.432-6.5a7.09,7.09,0,0,1,4.584-6.82c2.331-.994,5.588-1.174,8.081-1.446V393.3a5.2,5.2,0,0,0-.523-3.025,2.907,2.907,0,0,0-2.412-1.084,3.26,3.26,0,0,0-3.455,2.505.893.893,0,0,1-.747.768l-4.165-.439a.738.738,0,0,1-.642-.873c.958-4.906,5.522-6.389,9.611-6.389,2.091,0,4.825.542,6.472,2.078,2.092,1.9,1.891,4.427,1.891,7.183v6.5a5.616,5.616,0,0,0,1.622,3.867c.275.381.335.832-.014,1.109-.878.714-2.437,2.03-3.3,2.772ZM629,398.09v-.9c-3.11,0-6.392.645-6.392,4.2,0,1.807.964,3.027,2.612,3.027a3.5,3.5,0,0,0,2.975-1.9A7.981,7.981,0,0,0,629,398.09ZM577,408.264a.908.908,0,0,1-1.015.1,10.242,10.242,0,0,1-2.463-2.78c-2.359,2.333-4.031,3.033-7.086,3.033-3.618,0-6.433-2.168-6.433-6.5a7.088,7.088,0,0,1,4.583-6.82c2.332-.994,5.589-1.174,8.08-1.446V393.3a5.21,5.21,0,0,0-.521-3.025,2.908,2.908,0,0,0-2.413-1.084,3.259,3.259,0,0,0-3.454,2.505.893.893,0,0,1-.747.768l-4.166-.439a.738.738,0,0,1-.642-.873c.957-4.906,5.52-6.389,9.611-6.389,2.09,0,4.825.542,6.473,2.078,2.09,1.9,1.89,4.427,1.89,7.183v6.5a5.617,5.617,0,0,0,1.621,3.867c.274.381.336.832-.013,1.109-.878.714-2.439,2.03-3.3,2.772Zm-4.333-10.174v-.9c-3.107,0-6.392.645-6.392,4.2,0,1.807.966,3.027,2.613,3.027a3.5,3.5,0,0,0,2.976-1.9A7.984,7.984,0,0,0,572.663,398.09Z" transform="translate(-558 -361.396)" fill-rule="evenodd"/>
    </g>
  </g>
</svg>
