<svg xmlns="http://www.w3.org/2000/svg" xmlns:xlink="http://www.w3.org/1999/xlink" width="192" height="70" viewBox="0 0 192 70">
  <defs>
    <linearGradient id="linear-gradient" x1="0.5" y1="0.997" x2="0.5" y2="0.021" gradientUnits="objectBoundingBox">
      <stop offset="0" stop-color="#fa233b"/>
      <stop offset="1" stop-color="#fb5c74"/>
    </linearGradient>
    <clipPath id="clip-logo-applemusic">
      <rect width="192" height="70"/>
    </clipPath>
  </defs>
  <g id="logo-applemusic" clip-path="url(#clip-logo-applemusic)">
    <g id="US-UK_Apple_Music_Listen_on_Badge_RGB_072720" transform="translate(2 15)">
      <g id="Group_2022" data-name="Group 2022">
        <g id="Group_2021" data-name="Group 2021">
          <g id="Group_2020" data-name="Group 2020">
            <path id="Path_3037" data-name="Path 3037" d="M129.382,0H8.394c-.308,0-.607.01-.915.01A13.251,13.251,0,0,0,5.49.19,6.679,6.679,0,0,0,3.6.82,6.04,6.04,0,0,0,1.989,2,6.071,6.071,0,0,0,.816,3.62a6.767,6.767,0,0,0-.627,1.9,13.465,13.465,0,0,0-.179,2c0,.31-.01.62-.01.92V31.55c0,.31.01.61.02.92a13.465,13.465,0,0,0,.179,2,6.368,6.368,0,0,0,.627,1.9A6.022,6.022,0,0,0,2,37.98,6.04,6.04,0,0,0,3.61,39.16a6.679,6.679,0,0,0,1.89.63,13.37,13.37,0,0,0,1.989.18c.3.02.6.03.905.03H130.456c.3,0,.617,0,.915-.01a13.251,13.251,0,0,0,1.989-.18,6.849,6.849,0,0,0,1.9-.63A6.2,6.2,0,0,0,136.871,38a6.338,6.338,0,0,0,1.79-3.51,14.955,14.955,0,0,0,.189-2v-.92c.01-.36.01-.72.01-1.09V9.54c0-.37,0-.73-.01-1.09V7.53a12.264,12.264,0,0,0-.189-2,6.442,6.442,0,0,0-.617-1.9A6.438,6.438,0,0,0,135.26.83a6.849,6.849,0,0,0-1.9-.63,13.251,13.251,0,0,0-1.989-.18c-.3,0-.617-.01-.915-.01C130.108,0,129.74,0,129.382,0Z" fill="#a6a6a6"/>
            <path id="Path_3038" data-name="Path 3038" d="M8.4,39.12c-.3,0-.6,0-.9-.01a14.157,14.157,0,0,1-1.86-.16,5.839,5.839,0,0,1-1.651-.55A5.383,5.383,0,0,1,2.6,37.38a5.552,5.552,0,0,1-1.551-3.06A13.834,13.834,0,0,1,.88,32.44c-.01-.21-.01-.91-.01-.91V8.44s.01-.69.01-.89a13.564,13.564,0,0,1,.169-1.87A5.71,5.71,0,0,1,1.6,4.02,5.653,5.653,0,0,1,2.61,2.62,5.274,5.274,0,0,1,3.993,1.6a5.657,5.657,0,0,1,1.641-.54A11.147,11.147,0,0,1,7.5.89L8.4.88H130.452l.9.01a11.848,11.848,0,0,1,1.85.16,5.8,5.8,0,0,1,1.661.55,5.507,5.507,0,0,1,1.382,1.02,5.653,5.653,0,0,1,1.014,1.4,5.945,5.945,0,0,1,.537,1.65,12.358,12.358,0,0,1,.169,1.89v.89c.01.38.01.73.01,1.09V30.47c0,.36,0,.72-.01,1.08v.93a13.191,13.191,0,0,1-.169,1.85,5.666,5.666,0,0,1-.537,1.67,5.422,5.422,0,0,1-1.014,1.39,5.162,5.162,0,0,1-1.392,1.02,5.905,5.905,0,0,1-1.661.55,11.215,11.215,0,0,1-1.86.16c-.288.01-.6.01-.9.01h-1.074Z"/>
          </g>
        </g>
      </g>
      <g id="XMLID_295_" transform="translate(37.39 8.39)">
        <g id="Group_2023" data-name="Group 2023" transform="translate(0.26)">
          <path id="Path_3039" data-name="Path 3039" d="M42.12,14.75H38.41V8.8h.92v5.11h2.79Z" transform="translate(-38.41 -8.39)" fill="#fff"/>
          <path id="Path_3040" data-name="Path 3040" d="M43.21,8.93a.539.539,0,0,1,.57-.54.545.545,0,0,1,.57.54.539.539,0,0,1-.57.54A.545.545,0,0,1,43.21,8.93Zm.13,1.33h.88v4.49h-.88Z" transform="translate(-38.41 -8.39)" fill="#fff"/>
          <path id="Path_3041" data-name="Path 3041" d="M47.3,10.17c1.01,0,1.67.47,1.76,1.26h-.85c-.08-.33-.4-.54-.91-.54s-.87.24-.87.59c0,.27.23.44.71.55l.75.17c.85.2,1.25.56,1.25,1.23,0,.85-.79,1.41-1.86,1.41s-1.77-.48-1.84-1.28h.89c.11.35.44.56.98.56s.95-.25.95-.61c0-.27-.21-.44-.66-.55l-.78-.18c-.85-.2-1.25-.59-1.25-1.26C45.56,10.73,46.29,10.17,47.3,10.17Z" transform="translate(-38.41 -8.39)" fill="#fff"/>
          <path id="Path_3042" data-name="Path 3042" d="M51.52,9.14v1.14h.97v.75h-.97v2.31c0,.47.19.68.64.68.14,0,.21-.01.34-.02v.74a2.358,2.358,0,0,1-.48.05c-.99,0-1.38-.35-1.38-1.21V11.04h-.71v-.75h.71V9.14Z" transform="translate(-38.41 -8.39)" fill="#fff"/>
          <path id="Path_3043" data-name="Path 3043" d="M57.42,13.54a1.819,1.819,0,0,1-1.95,1.3,2.042,2.042,0,0,1-2.08-2.32,2.075,2.075,0,0,1,2.07-2.35c1.25,0,2.01.85,2.01,2.27v.31H54.3v.05a1.191,1.191,0,0,0,1.2,1.29,1.069,1.069,0,0,0,1.07-.55h.85ZM54.3,12.09h2.27a1.079,1.079,0,0,0-1.11-1.16A1.148,1.148,0,0,0,54.3,12.09Z" transform="translate(-38.41 -8.39)" fill="#fff"/>
          <path id="Path_3044" data-name="Path 3044" d="M58.67,10.26h.85v.71h.07a1.341,1.341,0,0,1,1.34-.8,1.465,1.465,0,0,1,1.56,1.67v2.91H61.6V12.06c0-.72-.31-1.08-.97-1.08a1.028,1.028,0,0,0-1.07,1.14v2.63h-.89Z" transform="translate(-38.41 -8.39)" fill="#fff"/>
          <path id="Path_3045" data-name="Path 3045" d="M66.09,12.5a2.129,2.129,0,1,1,4.24,0,2.13,2.13,0,1,1-4.24,0Zm3.33,0c0-.97-.44-1.54-1.2-1.54s-1.21.57-1.21,1.54.43,1.55,1.21,1.55C68.98,14.05,69.42,13.48,69.42,12.5Z" transform="translate(-38.41 -8.39)" fill="#fff"/>
          <path id="Path_3046" data-name="Path 3046" d="M71.53,10.26h.85v.71h.07a1.341,1.341,0,0,1,1.34-.8,1.465,1.465,0,0,1,1.56,1.67v2.91h-.89V12.06c0-.72-.31-1.08-.97-1.08a1.028,1.028,0,0,0-1.07,1.14v2.63h-.89V10.26Z" transform="translate(-38.41 -8.39)" fill="#fff"/>
        </g>
        <g id="XMLID_296_" transform="translate(0 10.29)">
          <g id="Group_2024" data-name="Group 2024">
            <path id="Path_3047" data-name="Path 3047" d="M46.04,27.84H41.3L40.16,31.2H38.15l4.49-12.43h2.08L49.21,31.2H47.17Zm-4.25-1.55h3.76L43.7,20.84h-.05Z" transform="translate(-38.15 -18.68)" fill="#fff"/>
            <path id="Path_3048" data-name="Path 3048" d="M58.9,26.67c0,2.82-1.51,4.62-3.78,4.62a3.076,3.076,0,0,1-2.85-1.58h-.04V34.2H50.37V22.14h1.8v1.51h.03a3.224,3.224,0,0,1,2.89-1.6C57.38,22.04,58.9,23.86,58.9,26.67Zm-1.91,0c0-1.83-.95-3.04-2.39-3.04-1.42,0-2.38,1.23-2.38,3.04,0,1.83.96,3.05,2.38,3.05C56.04,29.72,56.99,28.52,56.99,26.67Z" transform="translate(-38.15 -18.68)" fill="#fff"/>
            <path id="Path_3049" data-name="Path 3049" d="M68.86,26.67c0,2.82-1.51,4.62-3.78,4.62a3.076,3.076,0,0,1-2.85-1.58h-.04V34.2H60.33V22.14h1.8v1.51h.03a3.224,3.224,0,0,1,2.89-1.6C67.35,22.04,68.86,23.86,68.86,26.67Zm-1.91,0c0-1.83-.95-3.04-2.39-3.04-1.42,0-2.38,1.23-2.38,3.04,0,1.83.96,3.05,2.38,3.05C66,29.72,66.95,28.52,66.95,26.67Z" transform="translate(-38.15 -18.68)" fill="#fff"/>
            <path id="Path_3050" data-name="Path 3050" d="M70.36,18.77h1.86V31.2H70.36Z" transform="translate(-38.15 -18.68)" fill="#fff"/>
            <path id="Path_3051" data-name="Path 3051" d="M81.9,28.54c-.25,1.65-1.85,2.77-3.9,2.77-2.63,0-4.27-1.77-4.27-4.6s1.65-4.69,4.19-4.69c2.51,0,4.08,1.72,4.08,4.47v.64H75.6v.11a2.362,2.362,0,0,0,2.44,2.57,2.052,2.052,0,0,0,2.09-1.27H81.9Zm-6.29-2.71h4.53a2.175,2.175,0,0,0-2.22-2.3A2.3,2.3,0,0,0,75.61,25.83Z" transform="translate(-38.15 -18.68)" fill="#fff"/>
            <path id="Path_3052" data-name="Path 3052" d="M98.05,31.2V22.05h-.06L94.24,31.1H92.81l-3.76-9.05H89V31.2H87.24V18.77h2.23l4.02,9.81h.07l4.01-9.81h2.24V31.2Z" transform="translate(-38.15 -18.68)" fill="#fff"/>
            <path id="Path_3053" data-name="Path 3053" d="M109.72,31.2h-1.78V29.64h-.04a2.826,2.826,0,0,1-2.81,1.66,3.021,3.021,0,0,1-3.18-3.35V22.14h1.86v5.45c0,1.38.65,2.11,1.94,2.11a2.1,2.1,0,0,0,2.15-2.34V22.14h1.86V31.2Z" transform="translate(-38.15 -18.68)" fill="#fff"/>
            <path id="Path_3054" data-name="Path 3054" d="M115.01,22.04c2.01,0,3.45,1.11,3.49,2.71h-1.75c-.08-.8-.76-1.29-1.79-1.29-1.01,0-1.68.46-1.68,1.17,0,.54.45.9,1.39,1.14l1.53.35c1.83.44,2.51,1.11,2.51,2.44,0,1.64-1.55,2.76-3.76,2.76-2.14,0-3.57-1.09-3.71-2.75h1.84c.13.87.83,1.34,1.96,1.34,1.11,0,1.81-.46,1.81-1.18,0-.56-.34-.86-1.29-1.1l-1.62-.4q-2.46-.6-2.46-2.49C111.46,23.13,112.9,22.04,115.01,22.04Z" transform="translate(-38.15 -18.68)" fill="#fff"/>
            <path id="Path_3055" data-name="Path 3055" d="M120.16,19.75a1.085,1.085,0,1,1,1.08,1.06A1.073,1.073,0,0,1,120.16,19.75Zm.14,2.39h1.86V31.2H120.3Z" transform="translate(-38.15 -18.68)" fill="#fff"/>
            <path id="Path_3056" data-name="Path 3056" d="M130.17,25.26a2,2,0,0,0-2.14-1.67c-1.43,0-2.38,1.2-2.38,3.08,0,1.93.96,3.09,2.39,3.09a1.959,1.959,0,0,0,2.12-1.63h1.79a3.627,3.627,0,0,1-3.93,3.18c-2.58,0-4.27-1.77-4.27-4.64,0-2.82,1.69-4.64,4.25-4.64a3.649,3.649,0,0,1,3.93,3.23h-1.76Z" transform="translate(-38.15 -18.68)" fill="#fff"/>
          </g>
        </g>
      </g>
      <g id="Group_2027" data-name="Group 2027" transform="translate(7.54 7.42)">
        <g id="Group_2025" data-name="Group 2025">
          <path id="Path_3057" data-name="Path 3057" d="M32.71,15.29v-.9c0-.25,0-.51-.01-.76a10.123,10.123,0,0,0-.15-1.65,5.471,5.471,0,0,0-.52-1.57,5.334,5.334,0,0,0-.97-1.34,5.161,5.161,0,0,0-1.34-.97,5.471,5.471,0,0,0-1.57-.52,11.5,11.5,0,0,0-1.65-.15c-.25-.01-.51-.01-.76-.01H14.52c-.25,0-.51,0-.76.01a10.124,10.124,0,0,0-1.65.15,5.471,5.471,0,0,0-1.57.52,4.939,4.939,0,0,0-1.34.97,5.321,5.321,0,0,0-.98,1.33,5.471,5.471,0,0,0-.52,1.57,11.5,11.5,0,0,0-.15,1.65c-.01.25-.01.51-.01.76V25.6c0,.25,0,.51.01.76a10.124,10.124,0,0,0,.15,1.65,5.471,5.471,0,0,0,.52,1.57,5.334,5.334,0,0,0,.97,1.34,5.161,5.161,0,0,0,1.34.97,5.471,5.471,0,0,0,1.57.52,11.5,11.5,0,0,0,1.65.15c.25.01.51.01.76.01H25.73c.25,0,.51,0,.76-.01a10.123,10.123,0,0,0,1.65-.15,5.471,5.471,0,0,0,1.57-.52,5.334,5.334,0,0,0,1.34-.97,5.161,5.161,0,0,0,.97-1.34,5.471,5.471,0,0,0,.52-1.57,11.5,11.5,0,0,0,.15-1.65c.01-.25.01-.51.01-.76V15.29Z" transform="translate(-7.54 -7.42)" fill-rule="evenodd" fill="url(#linear-gradient)"/>
        </g>
        <g id="Glyph_9_" transform="translate(4.968 3.838)">
          <g id="Group_2026" data-name="Group 2026">
            <path id="Path_3058" data-name="Path 3058" d="M25.34,11.26c-.06.01-.6.1-.67.11l-7.48,1.51h0a1.022,1.022,0,0,0-.47.21.775.775,0,0,0-.25.49,1.214,1.214,0,0,0-.02.25v9.36a.89.89,0,0,1-.17.61.841.841,0,0,1-.55.28l-.49.1a7.989,7.989,0,0,0-1.38.35,2.36,2.36,0,0,0-.82.52,1.965,1.965,0,0,0-.52,1.56,1.944,1.944,0,0,0,1.53,1.72,3.214,3.214,0,0,0,1.35-.07,2.681,2.681,0,0,0,.87-.32,2.22,2.22,0,0,0,.69-.64,2.441,2.441,0,0,0,.37-.86,4.177,4.177,0,0,0,.08-.93V17.4c0-.44.12-.55.47-.63,0,0,6.22-1.25,6.51-1.31.4-.08.6.04.6.46v5.54a.9.9,0,0,1-.15.62.841.841,0,0,1-.55.28c-.16.03-.33.07-.49.1a7.989,7.989,0,0,0-1.38.35,2.36,2.36,0,0,0-.82.52,2.017,2.017,0,0,0-.54,1.56,1.975,1.975,0,0,0,.64,1.25,1.877,1.877,0,0,0,.91.46,3.214,3.214,0,0,0,1.35-.07,2.469,2.469,0,0,0,.87-.32,2.22,2.22,0,0,0,.69-.64,2.441,2.441,0,0,0,.37-.86,4.167,4.167,0,0,0,.07-.93V11.92C25.97,11.49,25.74,11.23,25.34,11.26Z" transform="translate(-12.508 -11.258)" fill="#fff" fill-rule="evenodd"/>
          </g>
        </g>
      </g>
    </g>
  </g>
</svg>
