<?xml version="1.0" ?><svg height="42px" version="1.1" viewBox="0 0 60 42" width="60px" xmlns="http://www.w3.org/2000/svg" xmlns:xlink="http://www.w3.org/1999/xlink"><title/><desc/><g fill="none" fill-rule="evenodd" id="Page-1" stroke="none" stroke-width="1"><g id="004---Cassette"><rect fill="#F2CC36" height="40" id="Rectangle" rx="2" width="58" x="1" y="1"/><rect fill="#FFF1B7" height="42" id="Rectangle" rx="1" transform="translate(30.000000, 21.000000) rotate(90.000000) translate(-30.000000, -21.000000) " width="20" x="20" y="3.55271368e-15"/><rect fill="#F9D349" height="34" id="Rectangle" rx="1" transform="translate(30.000000, 21.000000) rotate(90.000000) translate(-30.000000, -21.000000) " width="10" x="25" y="4"/><path d="M27,21 C27.0024124,21.3326381 26.9688845,21.6645636 26.9,21.99 L26.9,22.01 C26.4268075,24.340324 24.3778816,26.0150126 22,26.0150126 C19.6221184,26.0150126 17.5731925,24.340324 17.1,22.01 L17.1,21.99 C17.0311155,21.6645636 16.9975876,21.3326381 17,21 C17,18.2385763 19.2385763,16 22,16 C24.7614237,16 27,18.2385763 27,21 Z" fill="#DBB52F" id="Path"/><path d="M43,21 C43.0024124,21.3326381 42.9688845,21.6645636 42.9,21.99 L42.9,22.01 C42.4268075,24.340324 40.3778816,26.0150126 38,26.0150126 C35.6221184,26.0150126 33.5731925,24.340324 33.1,22.01 L33.1,21.99 C33.0311155,21.6645636 32.9975876,21.3326381 33,21 C33.0000001,18.2385763 35.2385763,16.0000001 38,16.0000001 C40.7614237,16.0000001 42.9999999,18.2385763 43,21 Z" fill="#DBB52F" id="Path"/><path d="M46,41 L44.456,36.368 C44.1838561,35.5509145 43.4192148,34.9997926 42.558,35 L17.442,35 C16.5800492,34.9989307 15.814376,35.5502154 15.542,36.368 L14,41 L46,41 Z" fill="#FFF1B7" id="Path"/><path d="M21,22 C20.4477153,22 20,21.5522847 20,21 C20,19.8954305 20.8954305,19 22,19 C22.5522847,19 23,19.4477153 23,20 C23,20.5522847 22.5522847,21 22,21 C22,21.5522847 21.5522847,22 21,22 Z" fill="#FFFFFF" id="Path"/><path d="M37,22 C36.4477153,22 36,21.5522847 36,21 C36,19.8954305 36.8954305,19 38,19 C38.5522847,19 39,19.4477153 39,20 C39,20.5522847 38.5522847,21 38,21 C38,21.5522847 37.5522847,22 37,22 Z" fill="#FFFFFF" id="Path"/><path d="M5,13 C4.44771525,13 4,12.5522847 4,12 L4,10 C4,9.44771525 4.44771525,9 5,9 C5.55228475,9 6,9.44771525 6,10 L6,12 C6,12.5522847 5.55228475,13 5,13 Z" fill="#FFFFFF" id="Path"/><path d="M5,37 C4.44771525,37 4,36.5522847 4,36 L4,17 C4,16.4477153 4.44771525,16 5,16 C5.55228475,16 6,16.4477153 6,17 L6,36 C6,36.5522847 5.55228475,37 5,37 Z" fill="#FFFFFF" id="Path"/><path d="M57,0 L3,0 C1.34314575,0 2.02906125e-16,1.34314575 0,3 L0,39 C2.02906125e-16,40.6568542 1.34314575,42 3,42 L57,42 C58.6568542,42 60,40.6568542 60,39 L60,3 C60,1.34314575 58.6568542,0 57,0 Z M15.387,40 L16.492,36.684 C16.6280719,36.2754572 17.0103926,35.9998963 17.441,36 L42.559,36 C42.9896074,35.9998963 43.3719281,36.2754572 43.508,36.684 L44.613,40 L15.387,40 Z M58,39 C58,39.5522847 57.5522847,40 57,40 L46.72,40 L45.4,36.051 C44.9921374,34.8278601 43.8483481,34.0021256 42.559,34 L17.441,34 C16.1516519,34.0021256 15.0078626,34.8278601 14.6,36.051 L13.28,40 L3,40 C2.44771525,40 2,39.5522847 2,39 L2,3 C2,2.44771525 2.44771525,2 3,2 L57,2 C57.5522847,2 58,2.44771525 58,3 L58,39 Z" fill="#000000" fill-rule="nonzero" id="Shape"/><path d="M50,10 L10,10 C8.8954305,10 8,10.8954305 8,12 L8,30 C8,31.1045695 8.8954305,32 10,32 L50,32 C51.1045695,32 52,31.1045695 52,30 L52,12 C52,10.8954305 51.1045695,10 50,10 Z M50,30 L10,30 L10,12 L50,12 L50,30 Z" fill="#000000" fill-rule="nonzero" id="Shape"/><path d="M14,27 L46,27 C47.1045695,27 48,26.1045695 48,25 L48,17 C48,15.8954305 47.1045695,15 46,15 L14,15 C12.8954305,15 12,15.8954305 12,17 L12,25 C12,26.1045695 12.8954305,27 14,27 Z M22,17 C24.209139,17 26,18.790861 26,21 C26,23.209139 24.209139,25 22,25 C19.790861,25 18,23.209139 18,21 C18,18.790861 19.790861,17 22,17 Z M26.46,17 L33.54,17 C31.4867571,19.2714348 31.4867571,22.7285652 33.54,25 L26.458,25 C28.5121714,22.7289227 28.5121714,19.2710773 26.458,17 L26.46,17 Z M42,21 C42,23.209139 40.209139,25 38,25 C35.790861,25 34,23.209139 34,21 C34,18.790861 35.790861,17 38,17 C40.209139,17 42,18.790861 42,21 Z M46,25 L42.459,25 C44.5131714,22.7289227 44.5131714,19.2710773 42.459,17 L46,17 L46,25 Z M14,17 L17.54,17 C15.4867571,19.2714348 15.4867571,22.7285652 17.54,25 L14,25 L14,17 Z" fill="#000000" fill-rule="nonzero" id="Shape"/></g></g></svg>