<?xml version="1.0" ?><!DOCTYPE svg  PUBLIC '-//W3C//DTD SVG 1.1//EN'  'http://www.w3.org/Graphics/SVG/1.1/DTD/svg11.dtd'><svg style="enable-background:new 0 0 200 200;" version="1.1" viewBox="0 0 200 200" xml:space="preserve" xmlns="http://www.w3.org/2000/svg" xmlns:xlink="http://www.w3.org/1999/xlink"><style type="text/css">
	.st0{fill:#0087BC;}
	.st1{opacity:0.3;fill:#F2F2F2;}
	.st2{fill:#F2F2F2;}
	.st3{fill:#F2F2F2;stroke:#000000;stroke-width:3;stroke-linecap:round;stroke-linejoin:round;stroke-miterlimit:10;}
	.st4{fill:#E84236;}
	.st5{fill:#FFFFFF;stroke:#000000;stroke-width:3;stroke-linecap:round;stroke-linejoin:round;stroke-miterlimit:10;}
	.st6{fill:#5C337F;}
	.st7{fill:#6988B7;}
	.st8{fill:#0067E3;}
	.st9{fill:#FFF200;}
	.st10{opacity:0.6;fill:#F2F2F2;}
	.st11{fill:#FFFFFF;stroke:#000000;stroke-width:5;stroke-linecap:round;stroke-linejoin:round;stroke-miterlimit:10;}
	.st12{fill:#17CB2D;}
	.st13{opacity:0.5;fill:#F2F2F2;}
	.st14{fill:#FFFFFF;}
	.st15{fill:#9E0A03;}
	.st16{fill:#CCCCCC;stroke:#000000;stroke-width:3;stroke-linecap:round;stroke-linejoin:round;stroke-miterlimit:10;}
	.st17{fill:#E6E6E6;stroke:#000000;stroke-width:3;stroke-linecap:round;stroke-linejoin:round;stroke-miterlimit:10;}
	.st18{fill:#FF233D;}
	.st19{fill:#F73E26;}
	.st20{fill:#F2F2F2;stroke:#000000;stroke-width:4;stroke-linecap:round;stroke-linejoin:round;stroke-miterlimit:10;}
	.st21{stroke:#000000;stroke-width:4;stroke-linecap:round;stroke-linejoin:round;stroke-miterlimit:10;}
	.st22{fill:none;stroke:#000000;stroke-width:4;stroke-linecap:round;stroke-linejoin:round;stroke-miterlimit:10;}
	.st23{fill:url(#SVGID_1_);}
	.st24{fill:#B22483;}
	.st25{fill:#12A0CC;}
	.st26{fill:#FF1E13;}
	.st27{fill:#FF1E13;stroke:#000000;stroke-width:3;stroke-linecap:round;stroke-linejoin:round;stroke-miterlimit:10;}
	.st28{fill:#1F41CC;}
</style><g><g id="Artboard_16"/><g id="Linked_In"><g id="Bubble_13_"/><g id="In"/></g><g id="Google_Plus"><g id="Bubble_12_"/><g id="Icon_3_"/></g><g id="Twitch"><g id="Bubble_11_"/><g id="Twitch_1_"/></g><g id="Discord"><g><path class="st7" d="M100,197.5c-53.8,0-97.5-43.7-97.5-97.5S46.2,2.5,100,2.5s97.5,43.7,97.5,97.5S153.8,197.5,100,197.5z"/><path d="M100,5c52.4,0,95,42.6,95,95s-42.6,95-95,95S5,152.4,5,100S47.6,5,100,5 M100,0C44.8,0,0,44.8,0,100s44.8,100,100,100      s100-44.8,100-100S155.2,0,100,0L100,0z"/></g><g id="Bubble_10_"><path class="st1" d="M100,5C47.5,5,5,47.5,5,100s42.5,95,95,95s95-42.5,95-95S152.5,5,100,5z M100,190c-49.7,0-90-40.3-90-90      c0-8.3,1.1-16.3,3.2-23.9c1.5,32.4,39.8,58.4,86.8,58.4s85.3-26,86.8-58.4c2.1,7.6,3.2,15.6,3.2,23.9      C190,149.7,149.7,190,100,190z"/></g><g id="Controller"><path class="st5" d="M150.1,70.3C142.1,62.6,114,58,114,58v2.4c0,0,14.9,5,18,8.5c0,0-2.1,0.9-2.1,0.9c-2.9-2.7-10.4-4.5-14-5.5      c-0.2-0.1-0.5-0.1-0.6-0.1c-2.3-0.4-4.8-0.7-7.2-0.9c-0.3,0-0.5,0-0.8-0.1c-0.8-0.1-2.2-0.1-2.2-0.1v0c0,0-0.6,0-0.8,0      c-1.2,0-2.6-0.1-3.8-0.1c-0.1,0-0.2,0-0.3,0c-0.2,0-0.3,0-0.5,0c-1.2,0-2.1,0-3.3,0.1C96,63,96,63,96,63v0c0,0-0.3,0-0.4,0      c-0.9,0-1.9,0.1-2.8,0.2c-0.3,0-0.6,0-1,0.1c-2.5,0.2-4.9,0.5-7.2,0.9c-0.2,0-0.4,0-0.6,0.1c-3.6,1-11,2.8-13.9,5.5      c0,0-1.8-0.9-1.8-0.9c3.1-3.5,18.6-8.5,18.6-8.5V58c0,0-28.7,4.7-36.7,12.3c-12.4,11.9-18.8,58.9-18.8,58.9s8.3,19.1,33.7,12.6      l4.6-6.8c0,0-10.7-4.8-10.7-7c0,0,2.8,1,3.8,1.3c3.9,1.3,11.8,4,15.8,5.2c0.2,0.1,0.4,0.1,0.6,0.1c0.6,0.1,1.2,0.2,1.7,0.4      c0.3,0.1,0.6,0.1,0.9,0.2c0.5,0.1,1,0.2,1.6,0.3c0.4,0.1,0.8,0.1,1.2,0.2c0.5,0.1,1,0.2,1.5,0.2c0.4,0.1,0.9,0.1,1.3,0.2      c0.5,0.1,0.9,0.1,1.4,0.2c0.5,0.1,1,0.1,1.5,0.2c0.4,0,0.9,0.1,1.3,0.1c0.5,0,1.1,0.1,1.6,0.1c0.4,0,0.9,0.1,1.3,0.1      c0.5,0,0.5,0,1.5,0.1v0c0,0-0.1,0,0,0c0.3,0,0.6,0,0.9,0c1,0,1.8,0,2.8,0c0.1,0,0.2,0,0.3,0c0.1,0,0.1,0,0.2,0      c0.2,0,0.4,0,0.6,0c0.2,0,0.4,0,0.6,0c0.6,0,1.2,0,1.8,0c0.3,0,0.9,0,1.3,0c0.1,0,0.6,0,0.6,0v0c0,0,0.3,0,0.5,0      c0.4,0,0.7-0.1,1.2-0.1c0.5,0,1-0.1,1.6-0.1c0.4,0,0.9-0.1,1.3-0.1c0.5-0.1,1-0.1,1.4-0.2c0.5-0.1,0.9-0.1,1.4-0.2      c0.4-0.1,0.9-0.1,1.3-0.2c0.5-0.1,1-0.2,1.5-0.2c0.4-0.1,0.8-0.1,1.2-0.2c0.5-0.1,1.1-0.2,1.6-0.3c0.3-0.1,0.6-0.1,0.9-0.2      c0.6-0.1,1.2-0.2,1.7-0.4c0.2,0,0.4-0.1,0.6-0.1c4-1.1,11.9-3.8,15.8-5.2c0.9-0.3,3.8-1.3,3.8-1.3c0,2.1-10.7,7-10.7,7l4.6,6.8      c25.3,6.5,33.7-12.6,33.7-12.6S162.5,82.2,150.1,70.3z M80.8,120.1c-6.3,0-11.4-5.1-11.4-11.4c0-6.3,5.1-11.4,11.4-11.4      c6.3,0,11.4,5.1,11.4,11.4C92.3,115,87.1,120.1,80.8,120.1z M119,120.1c-6.3,0-11.4-5.1-11.4-11.4c0-6.3,5.1-11.4,11.4-11.4      c6.3,0,11.4,5.1,11.4,11.4C130.4,115,125.3,120.1,119,120.1z"/></g></g><g id="Behance"><g id="BE"><g id="Bubble_9_"/></g></g><g id="SnapChat"><g id="Snap_Icon"/><g id="Bubble_8_"/><g id="Ghost"/><g id="Dots"/></g><g id="WhatsApp"><g id="Bubble_7_"/><g id="Icon_2_"/></g><g id="Flipboard"><g id="Bubble_6_"/><g id="Icon_1_"/></g><g id="Pinterest"><g id="Bubble_5_"/><g id="Icon"/></g><g id="Reddit"><g id="Bubble_1_"/><g id="Reddit_Icon"/></g><g id="Tumblr"><g id="Layer_21"/><g id="Bubble"/></g><g id="Instagram"><g id="Layer_20"><g id="Bubble_4_"/></g></g><g id="Twitter"><g id="Twitter_Bird"/><g id="Bubble_3_"/></g><g id="YouTube"><g id="Bubble_2_"/><g id="YouTube_Button"/></g><g id="Facebook_Icon"><g id="Facebook"/><g id="Bubble_14_"/></g></g></svg>