<?xml version="1.0" ?><!DOCTYPE svg  PUBLIC '-//W3C//DTD SVG 1.1//EN'  'http://www.w3.org/Graphics/SVG/1.1/DTD/svg11.dtd'><svg style="enable-background:new 0 0 200 200;" version="1.1" viewBox="0 0 200 200" xml:space="preserve" xmlns="http://www.w3.org/2000/svg" xmlns:xlink="http://www.w3.org/1999/xlink"><style type="text/css">
	.st0{fill:#0087BC;}
	.st1{opacity:0.3;fill:#F2F2F2;}
	.st2{fill:#F2F2F2;}
	.st3{fill:#F2F2F2;stroke:#000000;stroke-width:3;stroke-linecap:round;stroke-linejoin:round;stroke-miterlimit:10;}
	.st4{fill:#E84236;}
	.st5{fill:#FFFFFF;stroke:#000000;stroke-width:3;stroke-linecap:round;stroke-linejoin:round;stroke-miterlimit:10;}
	.st6{fill:#5C337F;}
	.st7{fill:#6988B7;}
	.st8{fill:#0067E3;}
	.st9{fill:#FFF200;}
	.st10{opacity:0.6;fill:#F2F2F2;}
	.st11{fill:#FFFFFF;stroke:#000000;stroke-width:5;stroke-linecap:round;stroke-linejoin:round;stroke-miterlimit:10;}
	.st12{fill:#17CB2D;}
	.st13{opacity:0.5;fill:#F2F2F2;}
	.st14{fill:#FFFFFF;}
	.st15{fill:#9E0A03;}
	.st16{fill:#CCCCCC;stroke:#000000;stroke-width:3;stroke-linecap:round;stroke-linejoin:round;stroke-miterlimit:10;}
	.st17{fill:#E6E6E6;stroke:#000000;stroke-width:3;stroke-linecap:round;stroke-linejoin:round;stroke-miterlimit:10;}
	.st18{fill:#FF233D;}
	.st19{fill:#F73E26;}
	.st20{fill:#F2F2F2;stroke:#000000;stroke-width:4;stroke-linecap:round;stroke-linejoin:round;stroke-miterlimit:10;}
	.st21{stroke:#000000;stroke-width:4;stroke-linecap:round;stroke-linejoin:round;stroke-miterlimit:10;}
	.st22{fill:none;stroke:#000000;stroke-width:4;stroke-linecap:round;stroke-linejoin:round;stroke-miterlimit:10;}
	.st23{fill:url(#SVGID_1_);}
	.st24{fill:#B22483;}
	.st25{fill:#12A0CC;}
	.st26{fill:#FF1E13;}
	.st27{fill:#FF1E13;stroke:#000000;stroke-width:3;stroke-linecap:round;stroke-linejoin:round;stroke-miterlimit:10;}
	.st28{fill:#1F41CC;}
</style><g><g id="Artboard_16"/><g id="Linked_In"><g id="Bubble_13_"/><g id="In"/></g><g id="Google_Plus"><g id="Bubble_12_"/><g id="Icon_3_"/></g><g id="Twitch"><g id="Bubble_11_"/><g id="Twitch_1_"/></g><g id="Discord"><g id="Bubble_10_"/><g id="Controller"/></g><g id="Behance"><g id="BE"><g id="Bubble_9_"/></g></g><g id="SnapChat"><g id="Snap_Icon"/><g id="Bubble_8_"/><g id="Ghost"/><g id="Dots"/></g><g id="WhatsApp"><g id="Bubble_7_"/><g id="Icon_2_"/></g><g id="Flipboard"><g id="Bubble_6_"/><g id="Icon_1_"/></g><g id="Pinterest"><g><path class="st18" d="M100,197.5c-53.8,0-97.5-43.7-97.5-97.5S46.2,2.5,100,2.5s97.5,43.7,97.5,97.5S153.8,197.5,100,197.5z"/><path d="M100,5c52.4,0,95,42.6,95,95s-42.6,95-95,95S5,152.4,5,100S47.6,5,100,5 M100,0C44.8,0,0,44.8,0,100s44.8,100,100,100      s100-44.8,100-100S155.2,0,100,0L100,0z"/></g><g id="Bubble_5_"><path class="st1" d="M100,5C47.5,5,5,47.5,5,100s42.5,95,95,95s95-42.5,95-95S152.5,5,100,5z M100,190c-49.7,0-90-40.3-90-90      c0-8.3,1.1-16.3,3.2-23.9c1.5,32.4,39.8,58.4,86.8,58.4s85.3-26,86.8-58.4c2.1,7.6,3.2,15.6,3.2,23.9      C190,149.7,149.7,190,100,190z"/></g><g id="Icon"/><path class="st3" d="M71.7,104.9C64,98,64.2,91.2,64.2,77.7c0-25.2,20.5-45.7,45.7-45.7s45.7,20.5,45.7,45.7     c0,25.2-19.5,45.7-44.7,45.7c-12.2,0-17.1-10.2-17.7-15.3l7.2-32.8c0,0-3-14.2-5.8-14.8c-2.8-0.6-10.8,6.4-12.2,10.2     C80,77.2,82.7,99,82.7,99s-16.3,54.8-16.2,73.7c0,2.4,1.9,8.5,3.6,8.8c2.1,0.4,7.4-5.1,8.6-7.7l10.7-48.6     c1.9,5.9,11.3,12.4,21.5,12.4c32,0,56.9-28,56.9-59.9s-25.9-57.9-57.9-57.9S52,45.7,52,77.7c0,18.5,2.7,29.7,14.5,38.8     L71.7,104.9z"/></g><g id="Reddit"><g id="Bubble_1_"/><g id="Reddit_Icon"/></g><g id="Tumblr"><g id="Layer_21"/><g id="Bubble"/></g><g id="Instagram"><g id="Layer_20"><g id="Bubble_4_"/></g></g><g id="Twitter"><g id="Twitter_Bird"/><g id="Bubble_3_"/></g><g id="YouTube"><g id="Bubble_2_"/><g id="YouTube_Button"/></g><g id="Facebook_Icon"><g id="Facebook"/><g id="Bubble_14_"/></g></g></svg>