<?xml version="1.0" ?><!DOCTYPE svg  PUBLIC '-//W3C//DTD SVG 1.1//EN'  'http://www.w3.org/Graphics/SVG/1.1/DTD/svg11.dtd'><svg style="enable-background:new 0 0 200 200;" version="1.1" viewBox="0 0 200 200" xml:space="preserve" xmlns="http://www.w3.org/2000/svg" xmlns:xlink="http://www.w3.org/1999/xlink"><style type="text/css">
	.st0{fill:#0087BC;}
	.st1{opacity:0.3;fill:#F2F2F2;}
	.st2{fill:#F2F2F2;}
	.st3{fill:#F2F2F2;stroke:#000000;stroke-width:3;stroke-linecap:round;stroke-linejoin:round;stroke-miterlimit:10;}
	.st4{fill:#E84236;}
	.st5{fill:#FFFFFF;stroke:#000000;stroke-width:3;stroke-linecap:round;stroke-linejoin:round;stroke-miterlimit:10;}
	.st6{fill:#5C337F;}
	.st7{fill:#6988B7;}
	.st8{fill:#0067E3;}
	.st9{fill:#FFF200;}
	.st10{opacity:0.6;fill:#F2F2F2;}
	.st11{fill:#FFFFFF;stroke:#000000;stroke-width:5;stroke-linecap:round;stroke-linejoin:round;stroke-miterlimit:10;}
	.st12{fill:#17CB2D;}
	.st13{opacity:0.5;fill:#F2F2F2;}
	.st14{fill:#FFFFFF;}
	.st15{fill:#9E0A03;}
	.st16{fill:#CCCCCC;stroke:#000000;stroke-width:3;stroke-linecap:round;stroke-linejoin:round;stroke-miterlimit:10;}
	.st17{fill:#E6E6E6;stroke:#000000;stroke-width:3;stroke-linecap:round;stroke-linejoin:round;stroke-miterlimit:10;}
	.st18{fill:#FF233D;}
	.st19{fill:#F73E26;}
	.st20{fill:#F2F2F2;stroke:#000000;stroke-width:4;stroke-linecap:round;stroke-linejoin:round;stroke-miterlimit:10;}
	.st21{stroke:#000000;stroke-width:4;stroke-linecap:round;stroke-linejoin:round;stroke-miterlimit:10;}
	.st22{fill:none;stroke:#000000;stroke-width:4;stroke-linecap:round;stroke-linejoin:round;stroke-miterlimit:10;}
	.st23{fill:url(#SVGID_1_);}
	.st24{fill:#B22483;}
	.st25{fill:#12A0CC;}
	.st26{fill:#FF1E13;}
	.st27{fill:#FF1E13;stroke:#000000;stroke-width:3;stroke-linecap:round;stroke-linejoin:round;stroke-miterlimit:10;}
	.st28{fill:#1F41CC;}
</style><g><g id="Artboard_16"/><g id="Linked_In"><g id="Bubble_13_"/><g id="In"/></g><g id="Google_Plus"><g id="Bubble_12_"/><g id="Icon_3_"/></g><g id="Twitch"><g><path class="st6" d="M100,197.5c-53.8,0-97.5-43.7-97.5-97.5S46.2,2.5,100,2.5s97.5,43.7,97.5,97.5S153.8,197.5,100,197.5z"/><path d="M100,5c52.4,0,95,42.6,95,95s-42.6,95-95,95S5,152.4,5,100S47.6,5,100,5 M100,0C44.8,0,0,44.8,0,100s44.8,100,100,100      s100-44.8,100-100S155.2,0,100,0L100,0z"/></g><g id="Bubble_11_"><path class="st1" d="M100,5C47.5,5,5,47.5,5,100s42.5,95,95,95s95-42.5,95-95S152.5,5,100,5z M100,190c-49.7,0-90-40.3-90-90      c0-8.3,1.1-16.3,3.2-23.9c1.5,32.4,39.8,58.4,86.8,58.4s85.3-26,86.8-58.4c2.1,7.6,3.2,15.6,3.2,23.9      C190,149.7,149.7,190,100,190z"/></g><g id="Twitch_1_"><g><g><path class="st2" d="M78.6,171.6c-2.3,0-4-0.2-5.2-0.6c-1-0.4-2.5-1.7-2.5-1.8c-0.3-0.3-1.5-1.8-1.8-2.8        c-1-3.5-0.4-12.6-0.2-16.3H50.6c-3.1,0-7.6-3.7-7.6-7.2V48.9c0-3.4,3.9-4.9,7.6-4.9h99.2c4.6,0,5.3,3.1,5.3,4.9v64.8        c-0.1,1-0.3,4.2-0.8,5.4c-0.3,0.8-1.3,2.7-1.3,2.8c-0.1,0.2-0.2,0.3-0.3,0.4L126.9,146c-0.7,0.7-2.6,2.5-3.7,2.9        c-1.1,0.4-3.9,1-4.3,1.1c-0.1,0-0.2,0-0.3,0h-13.4c-2.2,2.9-11.8,15.1-16,19c-0.3,0.3-0.7,0.5-1,0.6l-0.2,0.1        c-1.1,0.6-2.2,1.1-3,1.3C83.4,171.3,80.8,171.6,78.6,171.6z M79,149.7c0.1,1.4,1,6,3.2,6c0.2,0,0.5-0.1,0.8-0.1        c5.1-1.7,15.5-14.9,19.1-19.9c0.3-0.4,0.7-0.6,1.2-0.6h15c0.9-0.2,2.1-0.5,2.5-0.7c0.2-0.1,1.1-1,1.8-1.8c0,0,0.1-0.1,0.1-0.1        l18.9-17.5c0.4-0.6,0.8-1.3,0.9-1.5c0.1-0.4,0.4-1.9,0.5-3V55.6c0-0.4-0.1-0.5-0.1-0.5c0,0,0,0,0,0c0,0-0.3-0.1-1.2-0.1H67.6        c-2.4,0-3.5,0.5-3.7,0.7l0,76.6c0,0.8,2.4,2.7,3.6,2.7h9.9c0.8,0,1.5,0.7,1.5,1.5V149.7z"/><path d="M149.7,45.5c2.4,0,3.8,0.9,3.8,3.4v64.8c0,0-0.2,3.7-0.7,4.8c-0.3,0.8-1.3,2.7-1.3,2.7l-25.7,23.7        c0,0-2.3,2.2-3.3,2.6c-1,0.4-4,1-4,1h-14.1c0,0-11.7,15.1-16.3,19.4c-0.1,0.1-0.4,0.3-0.6,0.4c-0.2,0.1-2.1,1.1-2.8,1.2        c-1.5,0.3-3.9,0.6-6.2,0.6c-1.8,0-3.6-0.2-4.7-0.6c-0.6-0.2-1.7-1.2-1.9-1.4c-0.3-0.3-1.2-1.6-1.4-2.2c-1.1-4.2,0-17.4,0-17.4        H50.6c-2.4,0-6.1-3.2-6.1-5.7V48.9c0-2.4,3.6-3.4,6.1-3.4H149.7 M67.6,136.5h9.9v13.3c0,0,0.6,7.4,4.7,7.4        c0.4,0,0.8-0.1,1.3-0.2c6.7-2.3,19.8-20.4,19.8-20.4h15.2c0,0,2.2-0.5,2.9-0.8c0.7-0.3,2.3-2.2,2.3-2.2l19-17.6        c0,0,0.9-1.4,1.2-2c0.3-0.8,0.6-3.5,0.6-3.5V55.6c0-1.8-1-2.1-2.8-2.1H67.6c-1.8,0-5.1,0.3-5.1,2.1v76.7        C62.5,134.1,65.8,136.5,67.6,136.5 M149.7,42.5H50.6c-4.4,0-9.1,2-9.1,6.4v93.9c0,4.4,5.2,8.7,9.1,8.7h16.7        c-0.3,4.4-0.6,11.9,0.3,15.2c0.4,1.4,1.8,3.2,2.2,3.5c0,0,1.7,1.6,3.1,2.1c1.4,0.5,3.3,0.7,5.7,0.7c2.3,0,5-0.2,6.8-0.6        c0.8-0.2,1.9-0.7,3.3-1.4l0.2-0.1c0.3-0.2,0.9-0.5,1.3-0.9c4.1-3.7,12.9-14.9,15.7-18.6h12.6c0.2,0,0.4,0,0.6-0.1        c0.8-0.2,3.3-0.7,4.5-1.2c1-0.4,2.4-1.5,4.2-3.2l25.7-23.7c0.3-0.2,0.5-0.5,0.6-0.9c0.1-0.2,1-2.1,1.4-2.9        c0.6-1.4,0.8-4.2,0.9-5.8c0-0.1,0-0.1,0-0.2V48.9C156.5,44.9,154,42.5,149.7,42.5L149.7,42.5z M65.5,56.7        c0.5-0.1,1.2-0.2,2.1-0.2h73.9v53.8c-0.1,1-0.3,2.2-0.4,2.6c-0.1,0.2-0.4,0.7-0.7,1.1l-18.8,17.3c-0.1,0.1-0.2,0.2-0.2,0.2        c-0.5,0.5-1.1,1.2-1.4,1.4c-0.4,0.1-1.2,0.3-1.9,0.5h-14.8c-1,0-1.9,0.5-2.4,1.2c-5.2,7.2-14.3,18-18.3,19.3        c-0.2,0.1-0.3,0.1-0.3,0.1c-0.6-0.2-1.5-2.4-1.7-4.5v-13.1c0-1.7-1.3-3-3-3h-9.8c-0.6-0.1-1.8-1-2.2-1.5V56.7L65.5,56.7z"/></g><g><path class="st2" d="M122.4,109.2c-1.9,0-3.5-1.6-3.5-3.5V74.1c0-1.9,1.6-3.5,3.5-3.5h7.4c1.9,0,3.5,1.6,3.5,3.5v31.6        c0,1.9-1.6,3.5-3.5,3.5H122.4z"/><path d="M129.8,72.1c1.1,0,2,0.9,2,2v31.6c0,1.1-0.9,2-2,2h-7.4c-1.1,0-2-0.9-2-2V74.1c0-1.1,0.9-2,2-2H129.8 M129.8,69.1        h-7.4c-2.8,0-5,2.2-5,5v31.6c0,2.8,2.2,5,5,5h7.4c2.8,0,5-2.2,5-5V74.1C134.8,71.3,132.5,69.1,129.8,69.1L129.8,69.1z"/></g><g><path class="st2" d="M88.5,109.2c-1.9,0-3.5-1.6-3.5-3.5V74.1c0-1.9,1.6-3.5,3.5-3.5h7.4c1.9,0,3.5,1.6,3.5,3.5v31.6        c0,1.9-1.6,3.5-3.5,3.5H88.5z"/><path d="M95.9,72.1c1.1,0,2,0.9,2,2v31.6c0,1.1-0.9,2-2,2h-7.4c-1.1,0-2-0.9-2-2V74.1c0-1.1,0.9-2,2-2H95.9 M95.9,69.1h-7.4        c-2.8,0-5,2.2-5,5v31.6c0,2.8,2.2,5,5,5h7.4c2.8,0,5-2.2,5-5V74.1C100.9,71.3,98.7,69.1,95.9,69.1L95.9,69.1z"/></g></g></g></g><g id="Discord"><g id="Bubble_10_"/><g id="Controller"/></g><g id="Behance"><g id="BE"><g id="Bubble_9_"/></g></g><g id="SnapChat"><g id="Snap_Icon"/><g id="Bubble_8_"/><g id="Ghost"/><g id="Dots"/></g><g id="WhatsApp"><g id="Bubble_7_"/><g id="Icon_2_"/></g><g id="Flipboard"><g id="Bubble_6_"/><g id="Icon_1_"/></g><g id="Pinterest"><g id="Bubble_5_"/><g id="Icon"/></g><g id="Reddit"><g id="Bubble_1_"/><g id="Reddit_Icon"/></g><g id="Tumblr"><g id="Layer_21"/><g id="Bubble"/></g><g id="Instagram"><g id="Layer_20"><g id="Bubble_4_"/></g></g><g id="Twitter"><g id="Twitter_Bird"/><g id="Bubble_3_"/></g><g id="YouTube"><g id="Bubble_2_"/><g id="YouTube_Button"/></g><g id="Facebook_Icon"><g id="Facebook"/><g id="Bubble_14_"/></g></g></svg>