<?xml version="1.0" ?><!DOCTYPE svg  PUBLIC '-//W3C//DTD SVG 1.1//EN'  'http://www.w3.org/Graphics/SVG/1.1/DTD/svg11.dtd'><svg style="enable-background:new 0 0 200 200;" version="1.1" viewBox="0 0 200 200" xml:space="preserve" xmlns="http://www.w3.org/2000/svg" xmlns:xlink="http://www.w3.org/1999/xlink"><style type="text/css">
	.st0{fill:#0087BC;}
	.st1{opacity:0.3;fill:#F2F2F2;}
	.st2{fill:#F2F2F2;}
	.st3{fill:#F2F2F2;stroke:#000000;stroke-width:3;stroke-linecap:round;stroke-linejoin:round;stroke-miterlimit:10;}
	.st4{fill:#E84236;}
	.st5{fill:#FFFFFF;stroke:#000000;stroke-width:3;stroke-linecap:round;stroke-linejoin:round;stroke-miterlimit:10;}
	.st6{fill:#5C337F;}
	.st7{fill:#6988B7;}
	.st8{fill:#0067E3;}
	.st9{fill:#FFF200;}
	.st10{opacity:0.6;fill:#F2F2F2;}
	.st11{fill:#FFFFFF;stroke:#000000;stroke-width:5;stroke-linecap:round;stroke-linejoin:round;stroke-miterlimit:10;}
	.st12{fill:#17CB2D;}
	.st13{opacity:0.5;fill:#F2F2F2;}
	.st14{fill:#FFFFFF;}
	.st15{fill:#9E0A03;}
	.st16{fill:#CCCCCC;stroke:#000000;stroke-width:3;stroke-linecap:round;stroke-linejoin:round;stroke-miterlimit:10;}
	.st17{fill:#E6E6E6;stroke:#000000;stroke-width:3;stroke-linecap:round;stroke-linejoin:round;stroke-miterlimit:10;}
	.st18{fill:#FF233D;}
	.st19{fill:#F73E26;}
	.st20{fill:#F2F2F2;stroke:#000000;stroke-width:4;stroke-linecap:round;stroke-linejoin:round;stroke-miterlimit:10;}
	.st21{stroke:#000000;stroke-width:4;stroke-linecap:round;stroke-linejoin:round;stroke-miterlimit:10;}
	.st22{fill:none;stroke:#000000;stroke-width:4;stroke-linecap:round;stroke-linejoin:round;stroke-miterlimit:10;}
	.st23{fill:url(#SVGID_1_);}
	.st24{fill:#B22483;}
	.st25{fill:#12A0CC;}
	.st26{fill:#FF1E13;}
	.st27{fill:#FF1E13;stroke:#000000;stroke-width:3;stroke-linecap:round;stroke-linejoin:round;stroke-miterlimit:10;}
	.st28{fill:#1F41CC;}
</style><g><g id="Artboard_16"/><g id="Linked_In"><g id="Bubble_13_"/><g id="In"/></g><g id="Google_Plus"><g id="Bubble_12_"/><g id="Icon_3_"/></g><g id="Twitch"><g id="Bubble_11_"/><g id="Twitch_1_"/></g><g id="Discord"><g id="Bubble_10_"/><g id="Controller"/></g><g id="Behance"><g id="BE"><g id="Bubble_9_"/></g></g><g id="SnapChat"><g id="Snap_Icon"/><g id="Bubble_8_"/><g id="Ghost"/><g id="Dots"/></g><g id="WhatsApp"><g id="Bubble_7_"/><g id="Icon_2_"/></g><g id="Flipboard"><g id="Bubble_6_"/><g id="Icon_1_"/></g><g id="Pinterest"><g id="Bubble_5_"/><g id="Icon"/></g><g id="Reddit"><g id="Bubble_1_"/><g id="Reddit_Icon"/></g><g id="Tumblr"><g id="Layer_21"/><g id="Bubble"/></g><g id="Instagram"><g id="Layer_20"><g id="Bubble_4_"/></g></g><g id="Twitter"><g><path class="st25" d="M100,197.5c-53.8,0-97.5-43.7-97.5-97.5S46.2,2.5,100,2.5s97.5,43.7,97.5,97.5S153.8,197.5,100,197.5z"/><path d="M100,5c52.4,0,95,42.6,95,95s-42.6,95-95,95S5,152.4,5,100S47.6,5,100,5 M100,0C44.8,0,0,44.8,0,100s44.8,100,100,100      s100-44.8,100-100S155.2,0,100,0L100,0z"/></g><g id="Twitter_Bird"/><g id="Bubble_3_"><path class="st1" d="M100,5C47.5,5,5,47.5,5,100s42.5,95,95,95s95-42.5,95-95S152.5,5,100,5z M100,190c-49.7,0-90-40.3-90-90      c0-8.3,1.1-16.3,3.2-23.9c1.5,32.4,39.8,58.4,86.8,58.4s85.3-26,86.8-58.4c2.1,7.6,3.2,15.6,3.2,23.9      C190,149.7,149.7,190,100,190z"/></g><path class="st3" d="M166,65.5c-0.4-1-0.5-2.2-4.1-1.1l-5.3,2.7c2.6-2.4,6.2-6,6.7-8.2c0.1-0.2-0.2-1-0.2-1c-0.6-0.8-1-2-4.2,0     l-6.9,3.8c-1.2-1.9-2.6-3.6-4.1-5.1c-0.1-0.1-0.2-0.2-0.2-0.2c-4.6-4.2-10.7-6.8-17.4-6.8c-14.2,0-25.8,11.5-25.8,25.8     c0,1.4,0.1,2.8,0.3,4.2C60,62.1,56.2,54.3,48.6,51c0,0-13.4,18.5,11.4,32.6c-4.4-2.3-11.2-5.7-12.6-5.7c0,0-8.8,19.7,24,31.2     c1.4,0.5-12.7-3.3-12.8-1.8c-1.4,20.7,10.9,22.2,19.9,21.2c-6,5.2-18.8,8.1-26.7,9.7c-1.4,0.3-4.3,0.7-4.3,0.7     c-0.5,0.1-4.1,0.6-4.5,0.8c-1.5,0.8-0.8,2.3-0.1,2.9c12.2,10.4,40,10.7,56.4,7.8c31.7-5.6,58.2-29,58.2-64.8     c0-4.2-0.4-7.8-1.1-11c3-2,8.5-6,9.7-8.2C166.1,66.3,166,65.5,166,65.5z"/></g><g id="YouTube"><g id="Bubble_2_"/><g id="YouTube_Button"/></g><g id="Facebook_Icon"><g id="Facebook"/><g id="Bubble_14_"/></g></g></svg>